<svg id="Layer_5" enable-background="new 0 0 64 64" height="512" viewBox="0 0 64 64" width="512" xmlns="http://www.w3.org/2000/svg"><g><g><g><path d="m54 34h4 2c1.1 0 2 .9 2 2v2c0 1.1-.9 2-2 2h-2-4-4-4-4v-6h4 4z" fill="#ffc729"/></g><g><path d="m54 46h4 2c1.1 0 2 .9 2 2v2c0 1.1-.9 2-2 2h-2-4-4-4-4v-6h4 4z" fill="#ffc729"/></g><g><path d="m54 52h4 2c1.1 0 2 .9 2 2v2c0 1.1-.9 2-2 2h-18l-1.8.01c-.06-.01-.13-.01-.2-.01 1.1 0 2-.9 2-2 0-.55-.22-1.05-.59-1.41-.36-.37-.86-.59-1.41-.59 1.1 0 2-.9 2-2h4 4z" fill="#fcd770"/></g><g><path d="m54 40h4 2c1.1 0 2 .9 2 2v2c0 1.1-.9 2-2 2h-2-4-4-4-4v-6h4 4z" fill="#fcd770"/></g><g><path d="m54 28h4 2c1.1 0 2 .9 2 2v2c0 1.1-.9 2-2 2h-2-4-4-4-4v-6h4 4 2z" fill="#fcd770"/></g><g><path d="m10 54h23 7c.55 0 1.05.22 1.41.59.37.36.59.86.59 1.41 0 1.1-.9 2-2 2h-7-23c0-2.21-1.79-4-3.99-4z" fill="#ccd1d9"/></g><g><path d="m40.2 58.01c1.01.1 1.8.96 1.8 1.99 0 .55-.22 1.05-.59 1.41-.36.37-.86.59-1.41.59h-34c-2.21 0-4-1.79-4-4 0-.31.04-.62.11-.94.33-1.45 1.5-2.62 2.95-2.95.32-.07.63-.11.94-.11h.01c2.2 0 3.99 1.79 3.99 4h23 7c.07 0 .14 0 .2.01z" fill="#e6e9ed"/></g><g><path d="m10 12v42h-3.99-.01c-.31 0-.62.04-.94.11-1.45.33-2.62 1.5-2.95 2.95-.07.32-.11.63-.11.94v-42c0-2.21 1.79-4 4-4z" fill="#cf9e76"/></g><g><path d="m38 12h-28v42h23 7c1.1 0 2-.9 2-2v-6-6-6-6-8-4c0-2.21-1.79-4-4-4z" fill="#dfb28b"/></g><g><path d="m22 20v4l-4-2-4 2v-12h8z" fill="#e6e9ed"/></g><g><circle cx="26" cy="38" fill="#fcd770" r="10"/></g><g><path d="m52 10h-6c-4.42 0-8-3.58-8-8h6c4.42 0 8 3.58 8 8z" fill="#a0d468"/></g><g><path d="m58 12h4c0 1.66-.67 3.16-1.76 4.24-1.08 1.09-2.58 1.76-4.24 1.76h-4c0-1.66.67-3.16 1.76-4.24 1.08-1.09 2.58-1.76 4.24-1.76z" fill="#a0d468"/></g><g><path d="m58 2h4c0 1.66-.67 3.16-1.76 4.24-1.08 1.09-2.58 1.76-4.24 1.76h-4c0-1.66.67-3.16 1.76-4.24 1.08-1.09 2.58-1.76 4.24-1.76z" fill="#b4dd7f"/></g><g><path d="m52 22h-4c-3.31 0-6-2.69-6-6h4c3.31 0 6 2.69 6 6z" fill="#b4dd7f"/></g></g><g><g><path d="m26.146 43h-.292c-1.574 0-2.854-1.28-2.854-2.854v-.146h2v.146c0 .47.383.854.854.854h.292c.471 0 .854-.384.854-.854 0-.325-.181-.618-.473-.764l-1.95-.975c-.973-.487-1.577-1.466-1.577-2.553 0-1.574 1.28-2.854 2.854-2.854h.292c1.574 0 2.854 1.28 2.854 2.854v.146h-2v-.146c0-.47-.383-.854-.854-.854h-.292c-.471 0-.854.384-.854.854 0 .325.181.618.473.764l1.95.975c.973.487 1.577 1.466 1.577 2.553 0 1.574-1.28 2.854-2.854 2.854z"/></g><g><path d="m25 31h2v3h-2z"/></g><g><path d="m25 42h2v3h-2z"/></g><g><path d="m26 49c-6.065 0-11-4.935-11-11s4.935-11 11-11 11 4.935 11 11-4.935 11-11 11zm0-20c-4.962 0-9 4.037-9 9s4.038 9 9 9 9-4.037 9-9-4.038-9-9-9z"/></g><g><path d="m40 63h-34c-1.53 0-2.956-.687-3.911-1.885s-1.304-2.758-.957-4.28c.418-1.831 1.872-3.284 3.703-3.702 1.522-.35 3.083.001 4.281.956.931.743 1.554 1.77 1.784 2.911h29.1c1.654 0 3 1.346 3 3s-1.346 3-3 3zm-33.994-8.001c-.238 0-.481.027-.726.083-1.07.245-1.954 1.128-2.198 2.198-.214.938-.012 1.858.57 2.588.574.72 1.43 1.132 2.348 1.132h34c.551 0 1-.448 1-1s-.449-1-1-1h-31v-1c0-.918-.413-1.774-1.131-2.348-.54-.43-1.184-.653-1.863-.653z"/></g><g><path d="m40 59h-7v-2h7c.551 0 1-.448 1-1s-.449-1-1-1h-7v-2h7c1.654 0 3 1.346 3 3s-1.346 3-3 3z"/></g><g><path d="m9 12h2v42h-2z"/></g><g><path d="m23 25.618-5-2.5-5 2.5v-13.618h2v10.382l3-1.5 3 1.5v-10.382h2z"/></g><g><path d="m25 15h14v2h-14z"/></g><g><path d="m25 19h14v2h-14z"/></g><g><path d="m25 23h14v2h-14z"/></g><g><path d="m60 41h-18v-2h18c.551 0 1-.448 1-1v-2c0-.552-.449-1-1-1h-18v-2h18c1.654 0 3 1.346 3 3v2c0 1.654-1.346 3-3 3z"/></g><g><path d="m57 34h2v3h-2z"/></g><g><path d="m53 34h2v3h-2z"/></g><g><path d="m49 34h2v3h-2z"/></g><g><path d="m45 34h2v3h-2z"/></g><g><path d="m60 47h-18v-2h18c.551 0 1-.448 1-1v-2c0-.552-.449-1-1-1h-18v-2h18c1.654 0 3 1.346 3 3v2c0 1.654-1.346 3-3 3z"/></g><g><path d="m57 40h2v3h-2z"/></g><g><path d="m53 40h2v3h-2z"/></g><g><path d="m49 40h2v3h-2z"/></g><g><path d="m45 40h2v3h-2z"/></g><g><path d="m60 53h-18v-2h18c.551 0 1-.448 1-1v-2c0-.552-.449-1-1-1h-18v-2h18c1.654 0 3 1.346 3 3v2c0 1.654-1.346 3-3 3z"/></g><g><path d="m57 46h2v3h-2z"/></g><g><path d="m53 46h2v3h-2z"/></g><g><path d="m49 46h2v3h-2z"/></g><g><path d="m45 46h2v3h-2z"/></g><g><path d="m60 59h-18v-2h18c.551 0 1-.448 1-1v-2c0-.552-.449-1-1-1h-18v-2h18c1.654 0 3 1.346 3 3v2c0 1.654-1.346 3-3 3z"/></g><g><path d="m3 58h-2v-42c0-2.757 2.243-5 5-5h32c2.757 0 5 2.243 5 5v36c0 1.654-1.346 3-3 3h-34v-2h34c.551 0 1-.448 1-1v-36c0-1.654-1.346-3-3-3h-32c-1.654 0-3 1.346-3 3z"/></g><g><path d="m57 52h2v3h-2z"/></g><g><path d="m53 52h2v3h-2z"/></g><g><path d="m49 52h2v3h-2z"/></g><g><path d="m45 52h2v3h-2z"/></g><g><path d="m60 35h-18v-2h18c.551 0 1-.448 1-1v-2c0-.552-.449-1-1-1h-18v-2h18c1.654 0 3 1.346 3 3v2c0 1.654-1.346 3-3 3z"/></g><g><path d="m57 28h2v3h-2z"/></g><g><path d="m53 28h2v3h-2z"/></g><g><path d="m49 28h2v3h-2z"/></g><g><path d="m45 28h2v3h-2z"/></g><g><path d="m56 9h-5v-1c0-3.859 3.14-7 7-7h5v1c0 3.859-3.14 7-7 7zm-2.899-2h2.899c2.415 0 4.435-1.721 4.899-4h-2.899c-2.415 0-4.435 1.721-4.899 4z"/></g><g><path d="m56 19h-5v-1c0-3.859 3.14-7 7-7h5v1c0 3.859-3.14 7-7 7zm-2.899-2h2.899c2.415 0 4.435-1.721 4.899-4h-2.899c-2.415 0-4.435 1.721-4.899 4z"/></g><g><path d="m51 8h2v20h-2z"/></g><g><path d="m53 23h-5c-3.86 0-7-3.141-7-7v-1h5c3.86 0 7 3.141 7 7zm-9.899-6c.464 2.279 2.485 4 4.899 4h2.899c-.464-2.279-2.485-4-4.899-4z"/></g><g><path d="m53 11h-7c-4.962 0-9-4.037-9-9v-1h7c4.962 0 9 4.037 9 9zm-13.929-8c.487 3.388 3.408 6 6.929 6h4.929c-.487-3.388-3.408-6-6.929-6z"/></g></g></g></svg>