<svg id="Capa_1" enable-background="new 0 0 511.58 511.58" height="512" viewBox="0 0 511.58 511.58" width="512" xmlns="http://www.w3.org/2000/svg"><g><g><path d="m311.39 467.343h-111.198l14.512-89.739h82.174z" fill="#496585"/><path d="m239.705 377.605-14.51 89.74h-25l14.51-89.74z" fill="#3a4e66"/><path d="m504.085 99.255v281.22c0 6.63-5.37 12-12 12h-472.59c-6.63 0-12-5.37-12-12v-281.22c0-6.63 5.37-12 12-12h472.59c6.63 0 12 5.37 12 12z" fill="#b3dafe"/><path d="m44.495 392.475h-25c-6.63 0-12-5.37-12-12v-281.22c0-6.63 5.37-12 12-12h25c-6.63 0-12 5.37-12 12v281.22c0 6.63 5.37 12 12 12z" fill="#8ac9fe"/><path d="m360.574 503.604h-209.566c-2.209 0-4-1.791-4-4v-29.13c0-9.941 8.059-18 18-18h181.565c9.941 0 18 8.059 18 18v29.13c.001 2.209-1.79 4-3.999 4z" fill="#7397b8"/><path d="m504.085 327.285v53.19c0 6.63-5.37 12-12 12h-472.59c-6.63 0-12-5.37-12-12v-53.19z" fill="#7397b8"/><path d="m390.865 66.895v216.03h-270.15v-262.95c0-6.63 5.37-12 12-12h199.23z" fill="#f2fbff"/><path d="m157.715 7.975c-6.63 0-12 5.37-12 12v262.95h-25v-262.95c0-6.63 5.37-12 12-12z" fill="#d8ecfe"/><path d="m390.865 66.895h-54.92c-2.21 0-4-1.79-4-4v-54.92z" fill="#d8ecfe"/><path d="m236.685 222.255v30.17h-29.74v-30.17c0-2.21 1.79-4 4-4h21.74c2.21 0 4 1.79 4 4z" fill="#fea3c6"/><path d="m304.245 203.735v48.69h-29.73v-48.69c0-2.21 1.79-4 4-4h21.73c2.21 0 4 1.79 4 4z" fill="#95d6a4"/><g fill="#496585"><path d="m172.005 470.475v29.13c0 2.21 1.79 4 4 4h-25c-2.21 0-4-1.79-4-4v-29.13c0-9.94 8.06-18 18-18h25c-9.94 0-18 8.06-18 18z"/><path d="m44.495 392.475h-25c-6.63 0-12-5.37-12-12v-53.19h25v53.19c0 6.63 5.37 12 12 12z"/></g></g><g><path d="m504.08 271.37c4.143 0 7.5-3.357 7.5-7.5v-164.61c0-10.752-8.748-19.5-19.5-19.5h-93.71v-12.87c0-.099-.011-.185-.015-.28-.003-.068-.006-.135-.01-.202-.015-.207-.04-.402-.073-.587-.227-1.568-.931-3.061-2.101-4.231l-58.919-58.919c-1.164-1.164-2.649-1.868-4.21-2.099-.196-.036-.403-.062-.623-.077-.058-.004-.116-.007-.174-.009-.1-.004-.19-.016-.295-.016h-146c-4.143 0-7.5 3.357-7.5 7.5s3.357 7.5 7.5 7.5h138.498v47.424c0 6.341 5.159 11.5 11.5 11.5h47.422v201.037h-255.16v-255.461c0-2.481 2.019-4.5 4.5-4.5h18.24c4.143 0 7.5-3.357 7.5-7.5s-3.357-7.5-7.5-7.5h-18.24c-10.752 0-19.5 8.748-19.5 19.5v59.79h-93.71c-10.752 0-19.5 8.748-19.5 19.5v281.22c0 10.752 8.748 19.5 19.5 19.5h183.989l-7.282 45h-31.197c-14.061 0-25.5 11.439-25.5 25.5v29.13c0 6.341 5.159 11.5 11.5 11.5h21.44c4.143 0 7.5-3.357 7.5-7.5s-3.357-7.5-7.5-7.5h-17.94v-25.63c0-5.79 4.71-10.5 10.5-10.5h181.56c5.79 0 10.5 4.71 10.5 10.5v25.63h-149.62c-4.143 0-7.5 3.357-7.5 7.5s3.357 7.5 7.5 7.5h153.12c6.341 0 11.5-5.159 11.5-11.5v-29.13c0-14.061-11.439-25.5-25.5-25.5h-31.197l-7.282-45h183.989c10.752 0 19.5-8.748 19.5-19.5v-81.61c0-4.143-3.357-7.5-7.5-7.5s-7.5 3.357-7.5 7.5v20.914h-481.58v-220.524c0-2.481 2.019-4.5 4.5-4.5h93.71v180.671h-22.584c-4.143 0-7.5 3.357-7.5 7.5s3.357 7.5 7.5 7.5h330.328c4.143 0 7.5-3.357 7.5-7.5s-3.357-7.5-7.5-7.5h-22.584v-180.671h93.71c2.481 0 4.5 2.019 4.5 4.5v164.61c0 4.143 3.358 7.5 7.5 7.5zm-203.901 173.61h-88.778l7.282-45h74.213zm196.401-110.196v45.696c0 2.481-2.019 4.5-4.5 4.5h-472.58c-2.481 0-4.5-2.019-4.5-4.5v-45.696zm-157.132-275.39v-33.313l33.313 33.313z"/><path d="m189.244 42.267h-29.948c-4.143 0-7.5 3.357-7.5 7.5s3.357 7.5 7.5 7.5h7.414v46.729c0 4.143 3.357 7.5 7.5 7.5s7.5-3.357 7.5-7.5v-46.729h7.534c4.143 0 7.5-3.357 7.5-7.5s-3.357-7.5-7.5-7.5z"/><path d="m213.312 57.267h93.739c4.143 0 7.5-3.357 7.5-7.5s-3.357-7.5-7.5-7.5h-93.739c-4.143 0-7.5 3.357-7.5 7.5s3.357 7.5 7.5 7.5z"/><path d="m213.312 84.267h93.739c4.143 0 7.5-3.357 7.5-7.5s-3.357-7.5-7.5-7.5h-93.739c-4.143 0-7.5 3.357-7.5 7.5s3.357 7.5 7.5 7.5z"/><path d="m213.312 111.267h93.739c4.143 0 7.5-3.357 7.5-7.5s-3.357-7.5-7.5-7.5h-93.739c-4.143 0-7.5 3.357-7.5 7.5s3.357 7.5 7.5 7.5z"/><path d="m166.71 137.909c0 4.143 3.357 7.5 7.5 7.5h157.738c4.143 0 7.5-3.357 7.5-7.5s-3.357-7.5-7.5-7.5h-157.738c-4.143 0-7.5 3.358-7.5 7.5z"/><path d="m339.448 164.909c0-4.143-3.357-7.5-7.5-7.5h-157.738c-4.143 0-7.5 3.357-7.5 7.5s3.357 7.5 7.5 7.5h157.738c4.143 0 7.5-3.357 7.5-7.5z"/><path d="m243.898 191.909c0-4.143-3.357-7.5-7.5-7.5h-62.188c-4.143 0-7.5 3.357-7.5 7.5s3.357 7.5 7.5 7.5h62.188c4.143 0 7.5-3.357 7.5-7.5z"/><path d="m184.44 259.93h142.7c4.143 0 7.5-3.357 7.5-7.5s-3.357-7.5-7.5-7.5h-15.2v-41.19c0-6.341-5.159-11.5-11.5-11.5h-21.74c-6.341 0-11.5 5.159-11.5 11.5v41.189h-22.82v-22.67c0-6.341-5.159-11.5-11.5-11.5h-21.74c-6.341 0-11.5 5.159-11.5 11.5v22.67h-15.2c-4.143 0-7.5 3.357-7.5 7.5s3.358 7.501 7.5 7.501zm97.76-52.69h14.74v37.689h-14.74zm-67.56 18.52h14.74v19.17h-14.74z"/></g></g></svg>