<svg height="512" viewBox="0 0 128 128" width="512" xmlns="http://www.w3.org/2000/svg"><g><g><circle cx="64.01" cy="64.026" fill="#ffe36e" r="45"/><path d="m60.229 81.36a4.987 4.987 0 0 1 -3.536-1.46l-17.106-17.111a5 5 0 0 1 7.071-7.071l13.571 13.571 21.133-21.133a5 5 0 1 1 7.071 7.071l-24.668 24.673a4.987 4.987 0 0 1 -3.536 1.46z" fill="#fffcf0"/></g><g fill="#2a285e"><path d="m64 17.25a46.75 46.75 0 1 0 26.38 85.35 1.75 1.75 0 0 0 -1.98-2.887 43.162 43.162 0 1 1 16.154-20.654 1.75 1.75 0 1 0 3.281 1.218 46.78 46.78 0 0 0 -43.835-63.027z"/><path d="m100.709 90.091a1.751 1.751 0 0 0 -2.455.317c-.137.178-.237.315-.306.412a1.75 1.75 0 1 0 2.855 2.025c.05-.071.123-.17.223-.3a1.751 1.751 0 0 0 -.317-2.454z"/><path d="m80.114 46.893-19.9 19.895-12.328-12.334a6.75 6.75 0 1 0 -9.546 9.546l17.106 17.107a6.75 6.75 0 0 0 9.546 0l24.668-24.668a6.75 6.75 0 1 0 -9.546-9.546zm7.071 2.475a3.247 3.247 0 0 1 0 4.6l-24.667 24.664a3.33 3.33 0 0 1 -4.6 0l-17.104-17.107a3.25 3.25 0 0 1 4.6-4.6l13.567 13.575a1.749 1.749 0 0 0 2.475 0l21.133-21.132a3.254 3.254 0 0 1 4.596 0z"/></g></g></svg>