<svg id="Layer_5" enable-background="new 0 0 64 64" height="512" viewBox="0 0 64 64" width="512" xmlns="http://www.w3.org/2000/svg"><g><g><g><path d="m32 19 1 1-1 1-2 2-2-2-9-9-2-2 3-3 6 6z" fill="#aab2bd"/></g><g><path d="m28 21-3 7-1.01-1-11.99-12 7-3z" fill="#ccd1d9"/></g><g><path d="m23.99 27c.01.12.01.24.01.36 0 4.68-2.65 8.96-6.83 11.06l-1.17.58v-5l1.41-1.41c.38-.38.59-.89.59-1.42v-.17c0-.55-.22-1.05-.59-1.41-.36-.37-.86-.59-1.41-.59v-2c0-1.66-1.34-3-3-3h-5-.22-1.28c-1.24 0-2.37-.5-3.18-1.32-.82-.81-1.32-1.94-1.32-3.18 0-2.49 2.01-4.5 4.5-4.5h5.5z" fill="#b27946"/></g><g><path d="m16 62h-14v-2c0-6.3 2.96-12.22 8-16l6-2c2.4.9 4.4 2.5 5.8 4.52s2.2 4.45 2.2 7.02v8.46z" fill="#ccd1d9"/></g><g><path d="m17.41 29.59c.37.36.59.86.59 1.41v.17c0 .53-.21 1.04-.59 1.42l-1.41 1.41v5 3l-6 2v-5h-.59c-.9 0-1.77-.36-2.41-1s-1-1.51-1-2.41v-2.59l-3-1c0-1.91 1.22-4.64 2.1-6.36.52-1.01 1.55-1.64 2.68-1.64h.22 5c1.66 0 3 1.34 3 3v2c.55 0 1.05.22 1.41.59z" fill="#f0d0b4"/></g><g><path d="m32 32c1.1 0 2 2.9 2 4s-.9 2-2 2-2-.9-2-2 .9-4 2-4z" fill="#ff826e"/></g><g><path d="m47.52 48.93c.31.97.48 2 .48 3.07 0 5.52-4.48 10-10 10s-10-4.48-10-10 4.48-10 10-10c1.62 0 3.14.38 4.49 1.07 2.37 1.19 4.2 3.3 5.02 5.86z" fill="#fcd770"/></g><g><path d="m52 30c5.52 0 10 4.48 10 10s-4.48 10-10 10c-1.61 0-3.13-.39-4.48-1.07h-.01c-.82-2.56-2.65-4.67-5.02-5.86-.32-.97-.49-2-.49-3.07 0-5.52 4.48-10 10-10z" fill="#fcd770"/></g><g><circle cx="52" cy="12" fill="#fcd770" r="10"/></g></g><g><path d="m17.614 39.312c3.975-1.988 6.636-5.729 7.249-10.034l.474.474 3-7 1.663 1.662 1-1v7.921c-1.368.956-2 3.709-2 4.665 0 1.654 1.346 3 3 3s3-1.346 3-3c0-.956-.632-3.708-2-4.665v-9.921l1.414-1.414-1.414-1.414v-6.465c0-1.721-1.4-3.121-3.121-3.121-.834 0-1.618.324-2.207.914l-1.672 1.672-6-6-4.414 4.414 1.663 1.663-5.453 2.337h-5.296c-3.033 0-5.5 2.468-5.5 5.5 0 2.347 1.48 4.349 3.554 5.138-.125.171-.242.351-.34.544-1.01 1.969-2.214 4.751-2.214 6.819v.721l3 1v1.864c0 1.18.459 2.288 1.293 3.122.734.734 1.686 1.157 2.707 1.253v3.559c-5.015 3.959-8 10.077-8 16.48v3h24v-9.456c0-5.29-3.188-10.114-8-12.217v-1.708zm14.386-2.312c-.551 0-1-.448-1-1 0-.826.571-2.436 1-2.915.429.479 1 2.089 1 2.915 0 .552-.449 1-1 1zm-2.914-25.672c.212-.212.493-.328.793-.328.618 0 1.121.503 1.121 1.121v4.465l-3.586-3.586zm-10.672-1.328 1.586-1.586 11.586 11.586-1.586 1.586-.814-.814-9.958-9.957zm.357 3.186 8.042 8.043-2.151 5.02-10.911-10.912zm-11.771 22.4v-3.306l-2.944-.981c.191-1.298.862-3.108 1.938-5.205.345-.675 1.028-1.094 1.783-1.094h.223v-2h-.223-1.277c-1.93 0-3.5-1.57-3.5-3.5s1.57-3.5 3.5-3.5h5.085l11.411 11.411c-.018 4.201-2.308 7.971-5.997 9.946v-2.943l1.121-1.121c.568-.566.88-1.32.88-2.121v-.172c0-1.304-.836-2.416-2-2.829v-1.171c0-2.206-1.794-4-4-4v2c1.103 0 2 .897 2 2v3h1c.551 0 1 .448 1 1v.172c0 .263-.107.521-.293.707l-1.707 1.707v7.693l-4 1.333v-2.612h2v-2l-3.585.001c-.645 0-1.251-.251-1.707-.707-.457-.456-.708-1.063-.708-1.708zm16 17.958v7.456h-6v-9.343c0-.802.312-1.556.878-2.122l.829-.828-1.414-1.414-.829.828c-.944.944-1.464 2.2-1.464 3.536v9.343h-12v-1c0-5.895 2.79-11.528 7.472-15.104l5.5-1.833c4.218 1.733 7.028 5.901 7.028 10.481z"/><path d="m12 21h-2c0 2.586-.753 3.339-1.707 4.293l1.414 1.414c1.075-1.074 2.293-2.293 2.293-5.707z"/><path d="m38 49c.551 0 1 .448 1 1h2c0-1.302-.839-2.402-2-2.816v-2.184h-2v2.184c-1.161.414-2 1.514-2 2.816 0 1.654 1.346 3 3 3 .551 0 1 .448 1 1s-.449 1-1 1-1-.448-1-1h-2c0 1.302.839 2.402 2 2.816v2.184h2v-2.184c1.161-.414 2-1.514 2-2.816 0-1.654-1.346-3-3-3-.551 0-1-.448-1-1s.449-1 1-1z"/><path d="m52 37c.551 0 1 .448 1 1h2c0-1.302-.839-2.402-2-2.816v-2.184h-2v2.184c-1.161.414-2 1.514-2 2.816 0 1.654 1.346 3 3 3 .551 0 1 .448 1 1s-.449 1-1 1-1-.448-1-1h-2c0 1.302.839 2.402 2 2.816v2.184h2v-2.184c1.161-.414 2-1.514 2-2.816 0-1.654-1.346-3-3-3-.551 0-1-.448-1-1s.449-1 1-1z"/><path d="m52 29c-6.065 0-11 4.935-11 11 0 .487.039.972.104 1.453-.986-.29-2.026-.453-3.104-.453-6.065 0-11 4.935-11 11s4.935 11 11 11 11-4.935 11-11c0-.5-.045-.988-.11-1.471 1.007.301 2.045.471 3.11.471 6.065 0 11-4.935 11-11s-4.935-11-11-11zm-14 32c-4.962 0-9-4.037-9-9s4.038-9 9-9 9 4.037 9 9-4.038 9-9 9zm14-12c-1.284 0-2.524-.284-3.697-.818-.917-2.465-2.684-4.516-4.954-5.786-.218-.784-.349-1.585-.349-2.396 0-4.963 4.038-9 9-9s9 4.037 9 9-4.038 9-9 9z"/><path d="m52 15c-.551 0-1-.448-1-1h-2c0 1.302.839 2.402 2 2.816v2.184h2v-2.184c1.161-.414 2-1.514 2-2.816 0-1.654-1.346-3-3-3-.551 0-1-.448-1-1s.449-1 1-1 1 .448 1 1h2c0-1.302-.839-2.402-2-2.816v-2.184h-2v2.184c-1.161.414-2 1.514-2 2.816 0 1.654 1.346 3 3 3 .551 0 1 .448 1 1s-.449 1-1 1z"/><path d="m52 23c6.065 0 11-4.935 11-11s-4.935-11-11-11-11 4.935-11 11 4.935 11 11 11zm0-20c4.962 0 9 4.037 9 9s-4.038 9-9 9-9-4.037-9-9 4.038-9 9-9z"/></g></g></svg>