<svg id="Layer_4" height="512" viewBox="0 0 512 512" width="512" xmlns="http://www.w3.org/2000/svg" data-name="Layer 4"><path d="m384 456h-256a32 32 0 0 1 -32-32v-224h320v224a32 32 0 0 1 -32 32z" fill="#a2d2f9"/><path d="m80 200h352c15.376 0 21.9-19.574 9.6-28.8l-176-132a16 16 0 0 0 -19.2 0l-176 132c-12.3 9.226-5.776 28.8 9.6 28.8z" fill="#0a529b"/><path d="m350.225 374.225h32v112h-32z" fill="#0a529b" transform="matrix(.707 -.707 .707 .707 -196.95 384.971)"/><path d="m317.184 77.888-51.584-38.688a16 16 0 0 0 -19.2 0l-152.125 114.094c123.079 4.192 192.484-45.443 222.909-75.406z" fill="#fcfafa" opacity=".2"/><path d="m96 200h320v24h-320z" fill="#064186" opacity=".2"/><path d="m136 200v256h-8a32 32 0 0 1 -32-32v-224z" fill="#fcfafa" opacity=".2"/><circle cx="248" cy="312" fill="#fcc42d" r="80"/><path d="m248 232a79.995 79.995 0 0 0 -47.391 144.444c6.535-84.51 66.021-113.628 101.353-123.5a79.7 79.7 0 0 0 -53.962-20.944z" fill="#fcfafa" opacity=".2"/><g fill="#0e2f56"><path d="m446.4 164.8-176-132a24.122 24.122 0 0 0 -28.8 0l-176 132a24 24 0 0 0 14.4 43.2h8v216a40.046 40.046 0 0 0 40 40h200a8 8 0 0 0 0-16h-200a24.027 24.027 0 0 1 -24-24v-216h304v208a8 8 0 0 0 16 0v-208h8a24 24 0 0 0 14.4-43.2zm-6.81 21.729a7.772 7.772 0 0 1 -7.59 5.471h-352a8 8 0 0 1 -4.8-14.4l176-132a8.042 8.042 0 0 1 9.6 0l176 132a7.77 7.77 0 0 1 2.79 8.929z"/><path d="m192 312h16a40.046 40.046 0 0 1 40-40v-16a56.063 56.063 0 0 0 -56 56z"/><path d="m307.313 401.941a8 8 0 0 0 2.343 5.657l79.2 79.2a8 8 0 0 0 11.314 0l22.627-22.627a8 8 0 0 0 0-11.314l-79.2-79.2a8 8 0 0 0 -11.314 0l-5.657 5.657-11.026-11.033a88.1 88.1 0 1 0 -11.319 11.319l11.032 11.032-5.657 5.657a8 8 0 0 0 -2.343 5.652zm-59.313-17.941a72 72 0 1 1 72-72 72.081 72.081 0 0 1 -72 72zm89.941 6.627 67.882 67.883-11.313 11.313-67.883-67.882z"/></g></svg>