<svg id="Layer_1" height="512" viewBox="0 0 64 64" width="512" xmlns="http://www.w3.org/2000/svg" data-name="Layer 1"><path d="m32 61-5.037-.5q-4.963-.5-9.951-.5h-8.012v-36h1.82a47.362 47.362 0 0 1 21.18 5 47.362 47.362 0 0 1 21.18-5h1.82v36h-8.012q-4.984 0-9.951.5z" fill="#d8e0e6"/><path d="m53.18 24a47.362 47.362 0 0 0 -21.18 5v32l5.037-.5q4.963-.5 9.951-.5h8.012v-36z" fill="#c0c7cc"/><path d="m55 56v4h-8.01q-5 0-9.95.5l-5.04.5a47.354 47.354 0 0 1 21.18-5z" fill="#9da4a9"/><path d="m32 61-5.04-.5q-4.95-.495-9.95-.5h-8.01v-4h1.82a47.477 47.477 0 0 1 21.18 5z" fill="#b5bdc3"/><circle cx="32" cy="24" fill="#ffcb52" r="13"/><path d="m33 23h-2a2 2 0 0 1 0-4h2a2 2 0 0 1 2 2h2a4 4 0 0 0 -4-4v-2h-2v2a4 4 0 0 0 0 8h2a2 2 0 0 1 0 4h-2a2 2 0 0 1 -2-2h-2a4 4 0 0 0 4 4v2h2v-2a4 4 0 0 0 0-8z" fill="#6c8199"/><g fill="#7e97b3"><path d="m25 39h2v7h-2z"/><path d="m37 39h2v7h-2z"/><path d="m43 35h2v6h-2z"/><path d="m19 35h2v6h-2z"/></g><path d="m53.561 7.713a6.835 6.835 0 0 0 -4.148 4.148.233.233 0 0 1 -.426 0 6.835 6.835 0 0 0 -4.148-4.148.233.233 0 0 1 0-.426 6.835 6.835 0 0 0 4.148-4.148.233.233 0 0 1 .426 0 6.835 6.835 0 0 0 4.148 4.148.233.233 0 0 1 0 .426z" fill="#ffd76e"/><path d="m18.161 10.713a6.835 6.835 0 0 0 -4.148 4.148.233.233 0 0 1 -.426 0 6.835 6.835 0 0 0 -4.148-4.148.233.233 0 0 1 0-.426 6.835 6.835 0 0 0 4.148-4.148.233.233 0 0 1 .426 0 6.835 6.835 0 0 0 4.148 4.148.233.233 0 0 1 0 .426z" fill="#ffd76e"/></svg>