<?xml version="1.0" encoding="UTF-8"?>
<svg width="511px" height="501px" viewBox="219 154 511 501" xmlns="http://www.w3.org/2000/svg" xmlns:xlink="http://www.w3.org/1999/xlink" version="1.1">
 <!-- Generated by Pixelmator Pro 2.1.2 -->
 <g id="manual">
  <g id="group">
   <g id="group-1">
    <path id="Path" d="M679.836 307.919 L679.836 605.71 C679.836 610.136 676.215 613.758 671.788 613.758 L502.772 613.758 C502.772 631.545 488.365 645.952 470.578 645.952 452.791 645.952 438.385 631.545 438.385 613.758 L313.071 613.758 308.484 581.565 470.578 581.565 639.595 581.565 C644.021 581.565 647.643 577.943 647.643 573.516 L647.643 404.5 647.643 322.406 C659.555 319.992 670.5 314.921 679.836 307.919 Z" fill="#cf9e76" fill-opacity="1" stroke="none"/>
   </g>
   <g id="group-2">
    <path id="Path-1" d="M293.514 275.726 L293.514 356.21 261.32 380.355 261.32 283.774 C261.32 279.348 264.942 275.726 269.369 275.726 Z" fill="#cf9e76" fill-opacity="1" stroke="none"/>
   </g>
   <g id="group-3">
    <path id="Path-2" d="M470.578 581.565 L308.484 581.565 304.782 555.81 336.331 551.303 C345.345 550.015 354.44 549.371 363.454 549.371 L364.259 549.371 C402.087 549.371 439.109 560.558 470.578 581.565 Z" fill="#ecc19c" fill-opacity="1" stroke="none"/>
   </g>
   <g id="group-4">
    <path id="Path-3" d="M631.546 324.016 C592.672 324.016 560.157 296.33 552.672 259.629 L470.578 259.629 C460.276 249.327 446.272 243.532 431.705 243.532 L301.562 243.532 C297.136 243.532 293.514 247.154 293.514 251.581 L293.514 275.726 293.514 356.21 293.514 404.581 C294.077 404.5 294.56 404.5 295.124 404.5 303.574 404.5 310.818 410.456 312.428 418.746 L324.822 480.396 C325.385 483.455 325.707 486.513 325.707 489.652 325.707 502.127 320.717 514.119 311.945 522.892 L301.562 533.274 304.782 555.81 336.331 551.303 C345.345 550.015 354.44 549.371 363.454 549.371 L364.259 549.371 C402.087 549.371 439.109 560.558 470.578 581.565 L639.595 581.565 C644.021 581.565 647.643 577.943 647.643 573.516 L647.643 404.5 647.643 322.406 C642.492 323.453 637.1 324.016 631.546 324.016 Z" fill="#e6e9ed" fill-opacity="1" stroke="none"/>
   </g>
   <g id="group-5">
    <path id="Path-4" d="M559.111 493.032 L607.884 521.202 C598.145 538.103 579.956 549.371 559.111 549.371 538.265 549.371 520.076 538.103 510.337 521.202 Z" fill="#a0d468" fill-opacity="1" stroke="none"/>
   </g>
   <g id="group-6">
    <path id="Path-5" d="M615.449 493.032 C615.449 503.334 612.713 512.912 607.884 521.202 L559.111 493.032 559.111 436.694 C590.258 436.694 615.449 461.885 615.449 493.032 Z" fill="#fcd770" fill-opacity="1" stroke="none"/>
   </g>
   <g id="group-7">
    <path id="Path-6" d="M559.111 436.694 L559.111 493.032 510.337 521.202 C505.508 512.912 502.772 503.334 502.772 493.032 502.772 461.885 527.963 436.694 559.111 436.694 Z" fill="#ff826e" fill-opacity="1" stroke="none"/>
   </g>
   <g id="group-8">
    <path id="Path-7" d="M304.782 555.81 L308.484 581.565 313.071 613.758 317.659 645.952 229.127 645.952 245.224 533.274 301.562 533.274 Z" fill="#4fc1e9" fill-opacity="1" stroke="none"/>
   </g>
   <g id="group-9">
    <path id="Path-8" d="M293.514 404.58 C294.077 404.5 294.56 404.5 295.124 404.5 303.574 404.5 310.818 410.456 312.428 418.746 L324.822 480.396 C325.385 483.455 325.707 486.513 325.707 489.652 325.707 502.127 320.717 514.119 311.945 522.892 L301.562 533.274 245.224 533.274 229.529 431.301 C229.288 429.53 229.127 427.76 229.127 425.989 229.127 412.468 235.485 399.751 246.35 391.623 L261.32 380.355 293.514 356.21 Z" fill="#f0d0b4" fill-opacity="1" stroke="none"/>
   </g>
   <g id="group-10">
    <path id="Path-9" d="M406.191 275.726 L438.385 275.726 438.385 372.306 406.191 372.306 Z" fill="#a0d468" fill-opacity="1" stroke="none"/>
   </g>
   <g id="group-11">
    <path id="Path-10" d="M341.804 307.919 L373.998 307.919 373.998 372.306 341.804 372.306 Z" fill="#a0d468" fill-opacity="1" stroke="none"/>
   </g>
   <g id="group-12">
    <path id="Path-11" d="M631.546 163.048 C675.973 163.048 712.03 199.105 712.03 243.532 712.03 269.85 699.394 293.191 679.836 307.919 670.5 314.921 659.555 319.992 647.643 322.406 642.492 323.453 637.1 324.016 631.546 324.016 592.672 324.016 560.157 296.33 552.672 259.629 551.626 254.478 551.062 249.086 551.062 243.532 551.062 199.105 587.119 163.048 631.546 163.048 Z" fill="#fcd770" fill-opacity="1" stroke="none"/>
   </g>
  </g>
  <g id="group-13">
   <path id="Path-12" d="M623.498 282.293 L623.498 299.871 639.595 299.871 639.595 283.774 655.691 283.774 655.691 259.629 C655.691 246.317 644.858 235.484 631.546 235.484 627.112 235.484 623.498 231.878 623.498 227.435 L623.498 219.387 631.546 219.387 C635.981 219.387 639.595 222.993 639.595 227.435 L639.595 235.484 655.691 235.484 655.691 227.435 C655.691 216.956 648.939 208.103 639.595 204.771 L639.595 187.194 623.498 187.194 623.498 203.29 607.401 203.29 607.401 227.435 C607.401 240.747 618.234 251.581 631.546 251.581 635.981 251.581 639.595 255.186 639.595 259.629 L639.595 267.677 631.546 267.677 C627.112 267.677 623.498 264.072 623.498 259.629 L623.498 251.581 607.401 251.581 607.401 259.629 C607.401 270.108 614.154 278.961 623.498 282.293 Z" fill="#000000" fill-opacity="1" stroke="none"/>
   <path id="Path-13" d="M720.078 243.532 C720.078 194.719 680.36 155 631.546 155 582.733 155 543.014 194.719 543.014 243.532 543.014 246.253 543.183 248.925 543.424 251.581 L473.782 251.581 C462.208 241.174 447.399 235.484 431.713 235.484 L301.562 235.484 C292.685 235.484 285.465 242.703 285.465 251.581 L285.465 267.677 269.369 267.677 C260.491 267.677 253.272 274.897 253.272 283.774 L253.272 376.339 241.489 385.176 C228.708 394.745 221.078 410.013 221.078 425.989 221.078 428.17 221.247 430.351 221.577 432.5 L237.087 533.323 219.847 654 326.939 654 322.343 621.806 431.149 621.806 C434.884 640.149 451.15 654 470.578 654 490.007 654 506.273 640.149 510.007 621.806 L671.788 621.806 C680.665 621.806 687.885 614.587 687.885 605.71 L687.885 311.775 C707.531 295.517 720.078 270.961 720.078 243.532 Z M631.546 171.097 C671.482 171.097 703.982 203.588 703.982 243.532 703.982 283.476 671.482 315.968 631.546 315.968 591.61 315.968 559.111 283.476 559.111 243.532 559.111 203.588 591.61 171.097 631.546 171.097 Z M631.546 332.065 C634.266 332.065 636.939 331.896 639.595 331.654 L639.595 573.516 478.627 573.516 478.627 267.677 546.443 267.677 C556.994 304.781 591.111 332.065 631.546 332.065 Z M313.884 562.643 L337.498 559.271 C346.086 558.039 354.818 557.419 364.251 557.419 390.32 557.419 415.761 562.989 439.246 573.516 L315.438 573.516 Z M431.713 251.581 C443.174 251.581 453.983 255.709 462.53 263.178 L462.53 567.166 C432.574 550.224 398.803 541.323 363.47 541.323 354.062 541.323 344.557 541.999 335.221 543.327 L311.607 546.699 310.094 536.115 317.619 528.59 C327.872 518.353 333.756 504.155 333.756 489.644 333.756 486.03 333.402 482.392 332.685 478.835 L320.347 417.136 C318.383 407.341 310.898 399.824 301.562 397.377 L301.562 251.581 Z M269.369 283.774 L285.465 283.774 285.465 352.185 269.369 364.258 Z M251.147 398.045 L285.465 372.306 285.465 398.367 C276.041 402.198 269.369 411.414 269.369 422.198 L269.369 476.935 285.465 476.935 285.465 422.19 C285.465 416.87 289.796 412.548 295.107 412.548 299.687 412.548 303.663 415.808 304.564 420.299 L316.902 481.99 C317.401 484.501 317.659 487.085 317.659 489.644 317.659 499.906 313.498 509.958 306.238 517.218 L298.23 525.226 252.129 525.226 237.489 430.038 C237.28 428.702 237.175 427.341 237.175 425.989 237.175 415.051 242.399 404.605 251.147 398.045 Z M238.407 637.903 L252.202 541.323 294.584 541.323 308.379 637.903 Z M671.788 605.71 L494.724 605.71 494.724 613.758 C494.724 627.07 483.89 637.903 470.578 637.903 457.266 637.903 446.433 627.07 446.433 613.758 L446.433 605.71 320.041 605.71 317.74 589.613 639.595 589.613 C648.472 589.613 655.691 582.393 655.691 573.516 L655.691 328.636 C661.309 327.042 666.685 324.909 671.788 322.294 Z" fill="#000000" fill-opacity="1" stroke="none"/>
   <path id="Path-14" d="M559.111 428.645 C523.609 428.645 494.724 457.531 494.724 493.032 494.724 528.534 523.609 557.419 559.111 557.419 594.612 557.419 623.498 528.534 623.498 493.032 623.498 457.531 594.612 428.645 559.111 428.645 Z M551.062 445.466 L551.062 488.38 513.895 509.837 C511.939 504.598 510.82 498.948 510.82 493.032 510.82 469.153 528.261 449.321 551.062 445.466 Z M559.111 541.323 C544.165 541.323 530.788 534.498 521.919 523.801 L559.111 502.328 596.302 523.801 C587.433 534.498 574.057 541.323 559.111 541.323 Z M604.326 509.845 L567.159 488.38 567.159 445.466 C589.96 449.313 607.401 469.145 607.401 493.032 607.401 498.948 606.282 504.598 604.326 509.845 Z" fill="#000000" fill-opacity="1" stroke="none"/>
   <path id="Path-15" d="M494.724 396.452 L623.498 396.452 623.498 412.548 494.724 412.548 Z" fill="#000000" fill-opacity="1" stroke="none"/>
   <path id="Path-16" d="M494.724 364.258 L623.498 364.258 623.498 380.355 494.724 380.355 Z" fill="#000000" fill-opacity="1" stroke="none"/>
   <path id="Path-17" d="M494.724 332.065 L543.014 332.065 543.014 348.161 494.724 348.161 Z" fill="#000000" fill-opacity="1" stroke="none"/>
   <path id="Path-18" d="M559.111 332.065 L591.304 332.065 591.304 348.161 559.111 348.161 Z" fill="#000000" fill-opacity="1" stroke="none"/>
   <path id="Path-19" d="M446.433 267.677 L398.143 267.677 398.143 364.258 382.046 364.258 382.046 299.871 333.756 299.871 333.756 364.258 317.659 364.258 317.659 380.355 446.433 380.355 Z M349.853 315.968 L365.949 315.968 365.949 364.258 349.853 364.258 Z M430.336 364.258 L414.24 364.258 414.24 283.774 430.336 283.774 Z" fill="#000000" fill-opacity="1" stroke="none"/>
   <path id="Path-20" d="M349.853 396.452 L365.949 396.452 365.949 412.548 349.853 412.548 Z" fill="#000000" fill-opacity="1" stroke="none"/>
   <path id="Path-21" d="M382.046 396.452 L446.433 396.452 446.433 412.548 382.046 412.548 Z" fill="#000000" fill-opacity="1" stroke="none"/>
   <path id="Path-22" d="M349.853 428.645 L365.949 428.645 365.949 444.742 349.853 444.742 Z" fill="#000000" fill-opacity="1" stroke="none"/>
   <path id="Path-23" d="M382.046 428.645 L446.433 428.645 446.433 444.742 382.046 444.742 Z" fill="#000000" fill-opacity="1" stroke="none"/>
   <path id="Path-24" d="M349.853 460.839 L365.949 460.839 365.949 476.935 349.853 476.935 Z" fill="#000000" fill-opacity="1" stroke="none"/>
   <path id="Path-25" d="M382.046 460.839 L446.433 460.839 446.433 476.935 382.046 476.935 Z" fill="#000000" fill-opacity="1" stroke="none"/>
   <path id="Path-26" d="M349.853 493.032 L365.949 493.032 365.949 509.129 349.853 509.129 Z" fill="#000000" fill-opacity="1" stroke="none"/>
   <path id="Path-27" d="M382.046 493.032 L446.433 493.032 446.433 509.129 382.046 509.129 Z" fill="#000000" fill-opacity="1" stroke="none"/>
  </g>
 </g>
</svg>
