<svg id="_x33_0" enable-background="new 0 0 64 64" height="512" viewBox="0 0 64 64" width="512" xmlns="http://www.w3.org/2000/svg"><g><g><g><path d="m58 20v37c0 .55-.45 1-1 1h-21c0 2.21-1.79 4-4 4s-4-1.79-4-4h-15.57l-.57-4h20.14 21c.55 0 1-.45 1-1v-21-10.2c1.48-.3 2.84-.93 4-1.8z" fill="#ffeaa7"/></g><g><path d="m10 16v10l-4 3v-12c0-.55.45-1 1-1z" fill="#ffeaa7"/></g><g><path d="m32 54h-20.14l-.46-3.2 3.92-.56c1.12-.16 2.25-.24 3.37-.24h.1c4.7 0 9.3 1.39 13.21 4z" fill="#ecc19c"/></g><g><path d="m52 22c-4.83 0-8.87-3.44-9.8-8h-10.2c-1.28-1.28-3.02-2-4.83-2h-16.17c-.55 0-1 .45-1 1v3 10 6.01c.07-.01.13-.01.2-.01 1.05 0 1.95.74 2.15 1.77l1.54 7.66c.07.38.11.76.11 1.15 0 1.55-.62 3.04-1.71 4.13l-1.29 1.29.4 2.8 3.92-.56c1.12-.16 2.25-.24 3.37-.24h.1c4.7 0 9.3 1.39 13.21 4h21c.55 0 1-.45 1-1v-21-10.2c-.64.13-1.31.2-2 .2z" fill="#e6e9ed"/></g><g><path d="m43 43 6.06 3.5c-1.21 2.1-3.47 3.5-6.06 3.5s-4.85-1.4-6.06-3.5z" fill="#b4dd7f"/></g><g><path d="m50 43c0 1.28-.34 2.47-.94 3.5l-6.06-3.5v-7c3.87 0 7 3.13 7 7z" fill="#fcd770"/></g><g><path d="m43 36v7l-6.06 3.5c-.6-1.03-.94-2.22-.94-3.5 0-3.87 3.13-7 7-7z" fill="#ff826e"/></g><g><path d="m11.4 50.8.46 3.2.57 4 .57 4h-11l2-14h7z" fill="#4fc1e9"/></g><g><path d="m10 32.01c.07-.01.13-.01.2-.01 1.05 0 1.95.74 2.15 1.77l1.54 7.66c.07.38.11.76.11 1.15 0 1.55-.62 3.04-1.71 4.13l-1.29 1.29h-7l-1.95-12.67c-.03-.22-.05-.44-.05-.66 0-1.68.79-3.26 2.14-4.27l1.86-1.4 4-3z" fill="#f0d0b4"/></g><g><path d="m24 16h4v12h-4z" fill="#b4dd7f"/></g><g><path d="m16 20h4v8h-4z" fill="#b4dd7f"/></g><g><path d="m52 2c5.52 0 10 4.48 10 10 0 3.27-1.57 6.17-4 8-1.16.87-2.52 1.5-4 1.8-.64.13-1.31.2-2 .2-4.83 0-8.87-3.44-9.8-8-.13-.64-.2-1.31-.2-2 0-5.52 4.48-10 10-10z" fill="#fcd770"/></g></g><g><path d="m51 16.816v2.184h2v-2h2v-3c0-1.654-1.346-3-3-3-.551 0-1-.448-1-1v-1h1c.551 0 1 .448 1 1v1h2v-1c0-1.302-.839-2.402-2-2.816v-2.184h-2v2h-2v3c0 1.654 1.346 3 3 3 .551 0 1 .448 1 1v1h-1c-.551 0-1-.448-1-1v-1h-2v1c0 1.302.839 2.402 2 2.816z"/><path d="m63 12c0-6.065-4.935-11-11-11s-11 4.935-11 11c0 .338.021.67.051 1h-8.653c-1.438-1.293-3.278-2-5.227-2h-16.171c-1.103 0-2 .897-2 2v2h-2c-1.103 0-2 .897-2 2v11.501l-1.464 1.098c-1.588 1.189-2.536 3.086-2.536 5.071 0 .271.021.542.062.809l1.927 12.527-2.142 14.994h13.306l-.571-4h13.519c.464 2.279 2.485 4 4.899 4s4.435-1.721 4.899-4h20.101c1.103 0 2-.897 2-2v-36.521c2.441-2.02 4-5.071 4-8.479zm-11-9c4.962 0 9 4.037 9 9s-4.038 9-9 9-9-4.037-9-9 4.038-9 9-9zm0 20c.338 0 .67-.021 1-.051v30.051h-20v-38h8.426c1.311 4.61 5.55 8 10.574 8zm-39.469 28.649 2.934-.419c1.067-.153 2.152-.23 3.324-.23 3.239 0 6.4.692 9.318 2h-15.383zm14.64-38.649c1.424 0 2.767.513 3.829 1.441v37.77c-3.722-2.105-7.918-3.211-12.308-3.211-1.169 0-2.35.084-3.51.249l-2.934.419-.188-1.315.935-.935c1.274-1.272 2.005-3.036 2.005-4.839 0-.449-.044-.901-.133-1.343l-1.533-7.666c-.244-1.217-1.174-2.151-2.334-2.455v-18.115zm-20.171 4h2v8.5l-2 1.5zm-2.264 14.198 4.264-3.198v3.238c-1.171.476-2 1.621-2 2.961v6.801h2v-6.802c0-.661.538-1.198 1.198-1.198.569 0 1.063.405 1.175.963l1.533 7.665c.062.312.094.633.094.951 0 1.275-.517 2.524-1.419 3.426l-.995.995h-5.728l-1.819-11.827c-.026-.166-.039-.335-.039-.503 0-1.359.649-2.657 1.736-3.472zm-1.583 29.802 1.714-12h5.266l1.714 12zm53.847-4h-22v1c0 1.654-1.346 3-3 3s-3-1.346-3-3v-1h-15.704l-.286-2h39.99c1.103 0 2-.897 2-2v-30.426c.698-.198 1.366-.463 2-.788z"/><path d="m43 35c-4.411 0-8 3.589-8 8s3.589 8 8 8 8-3.589 8-8-3.589-8-8-8zm-1 2.09v5.332l-4.618 2.666c-.243-.651-.382-1.353-.382-2.088 0-2.967 2.167-5.431 5-5.91zm1 11.91c-1.857 0-3.519-.848-4.621-2.177l4.621-2.668 4.621 2.668c-1.102 1.329-2.764 2.177-4.621 2.177zm5.618-3.911-4.618-2.667v-5.332c2.833.478 5 2.942 5 5.91 0 .735-.139 1.437-.382 2.089z"/><path d="m35 31h16v2h-16z"/><path d="m35 27h16v2h-16z"/><path d="m35 23h6v2h-6z"/><path d="m43 23h4v2h-4z"/><path d="m29 15h-6v12h-2v-8h-6v8h-2v2h16zm-12 6h2v6h-2zm10 6h-2v-10h2z"/><path d="m17 31h2v2h-2z"/><path d="m21 31h8v2h-8z"/><path d="m17 35h2v2h-2z"/><path d="m21 35h8v2h-8z"/><path d="m17 39h2v2h-2z"/><path d="m21 39h8v2h-8z"/><path d="m17 43h2v2h-2z"/><path d="m21 43h8v2h-8z"/></g></g></svg>