<svg id="Capa_1" enable-background="new 0 0 512 512" height="512" viewBox="0 0 512 512" width="512" xmlns="http://www.w3.org/2000/svg"><g><g><g clip-rule="evenodd" fill-rule="evenodd"><path d="m241 124.75h30l22.5-22.501v-52.499h-75v52.499z" fill="#fbf2e2"/><path d="m218.5 49.75h75v-15c0-8.25-6.75-15-15-15h-60z" fill="#87bcc4"/><path d="m203.5 274.749h105v14.999h37.499v-142.498l-74.999-22.5h-30l-74.999 22.5v142.498h37.499z" fill="#faef93"/><path d="m203.5 274.749h104.999v127.502h-104.999z" fill="#ed9c87"/><path d="m308.5 402.25h181v-300.001h-196l-22.5 22.5 75 22.5v142.498h-37.5zm-286 0h181v-112.502h-37.5v-142.498l75-22.5-22.5-22.5h-196z" fill="#c4e5f9"/><path d="m308.5 432.25h181v-30h-467v30h181l7.5 30h90z" fill="#87bcc4"/><path d="m22.5 492.25h467c8.25 0 15-6.75 15-15v-45h-196l-7.5 30h-90l-7.5-30h-196v45c0 8.25 6.75 15 15 15z" fill="#87bcc4"/><path d="m22.5 102.249h22.5v300.001h-22.5z" fill="#83c8f1"/><path d="m22.5 402.25h22.5v30h-22.5z" fill="#5fa6b0"/><path d="m22.5 492.25h22.5c-8.25 0-15-6.75-15-15v-45h-22.5v45c0 8.25 6.75 15 15 15z" fill="#5fa6b0"/><path d="m241 124.75h22.5l-22.5-22.501v-52.499h-22.5v52.499z" fill="#f7e0ba"/><path d="m218.5 19.75h22.5v30h-22.5z" fill="#5fa6b0"/><path d="m188.5 140.5-22.499 6.75v142.498h22.499z" fill="#f8e868"/><path d="m203.5 402.25h22.5v-127.501h-22.5zm52.5 0h22.5v-90.002h-22.5z" fill="#e46a4a"/></g><g><path d="m482 469.75h-15v-15h15zm-30 0h-45v-15h45zm-392-89.999h-15v-15h15zm0-30h-15v-45h15zm203.5-127.502h-15v-15h15zm203.5-22.5h-15v-45h15zm-203.5-37.5h-15v-15h15zm203.5-22.5h-15v-15h15z" fill="#fff"/></g></g><g><path d="m482 334.751h15v-240.001h-181.001v15h166.001z"/><path d="m30 109.75h166v-15h-181v59.999h15z"/><path d="m368.499 282.249h15v15h-15z"/><path d="m45 394.75h422v15h-422z"/><path d="m128.501 252.249h15v15h-15z"/><path d="m368.499 252.249h15v15h-15z"/><path d="m128.501 282.249h15v15h-15z"/><path d="m248.5 237.249h15v15h-15z"/><path d="m248.5 177.249h15v15h-15z"/><path d="m497 424.75v-74.999h-15v74.999h-218.5v15h35.394l-3.75 15h-78.289l-3.75-15h35.395v-15h-158.501v15h107.645l7.5 30h101.711l7.5-30h182.645v37.5c0 4.135-3.364 7.5-7.5 7.5h-52.499v15h52.499c12.406 0 22.5-10.093 22.5-22.5v-52.5z"/><path d="m15 477.25v-37.5h59.999v-15h-44.999v-255.001h-15v255.001h-15v52.5c0 12.406 10.094 22.5 22.5 22.5h399.501v-15h-399.501c-4.136 0-7.5-3.364-7.5-7.5z"/><path d="m158.501 141.67v155.579h37.499v82.502h15v-97.502h90v97.502h15v-82.502h37.499v-155.579l-68.318-20.496 15.819-15.818v-70.606c0-12.406-10.094-22.5-22.5-22.5h-67.5v93.106l15.818 15.818zm179.998 140.579h-22.499v-97.499h-15v82.499h-90v-82.499h-15v97.499h-22.499v-129.419l68.6-20.581h27.798l68.601 20.581v129.419zm-112.499-254.999h52.5c4.136 0 7.5 3.364 7.5 7.5v7.5h-60zm0 30h60v41.894l-18.107 18.106h-23.786l-18.107-18.107z"/><path d="m248.5 312.248h15v67.503h-15z"/></g></g></svg>