<svg id="Capa_1" enable-background="new 0 0 512 512" height="512" viewBox="0 0 512 512" width="512" xmlns="http://www.w3.org/2000/svg"><g><g><circle cx="256" cy="157.003" fill="#e175a5" r="149.503"/></g><g><path d="m342.195 34.84c17.219 24.36 27.34 54.095 27.34 86.195 0 82.569-66.935 149.503-149.504 149.503-32.1 0-61.835-10.12-86.195-27.34 27.072 38.299 71.696 63.308 122.164 63.308 82.569 0 149.504-66.935 149.504-149.503 0-50.468-25.01-95.091-63.309-122.163z" fill="#de5791"/></g><g><g><path d="m318.19 406.374 76.913-76.913c3.866-3.866 9.11-6.038 14.577-6.038 18.366 0 27.564 22.206 14.577 35.192l-47.759 47.759z" fill="#f6a96c"/></g><g><path d="m259.881 406.374 76.913-76.913c3.866-3.866 9.11-6.038 14.577-6.038 18.366 0 27.564 22.206 14.577 35.192l-47.759 47.759z" fill="#ea9b58"/></g><g><path d="m496.77 323.422c-10.306-10.306-27.014-10.306-37.32 0l-82.952 82.952h-76.516c14.574 0 26.389-11.815 26.389-26.389s-11.815-26.389-26.389-26.389h-83.566l-16.951-13.744c-15.353-12.449-34.519-19.242-54.285-19.242-19.381 0-38.197 6.532-53.409 18.542l-18.297 14.445h-65.973v140.743h65.973l159.273 9.988c10.627.666 21.287-.602 31.461-3.744l123.737-38.213c6.84-2.112 13.06-5.862 18.122-10.924l90.703-90.703c10.305-10.307 10.305-27.016 0-37.322z" fill="#fed2a4"/></g><g><path d="m496.77 323.422c-10.306-10.306-27.014-10.306-37.32 0l-82.952 82.952h-15.741c-7.998 10.271-16.817 20.293-26.451 29.926-31.652 31.652-67.455 54.614-102.74 67.952l1.18.074c10.627.666 21.287-.602 31.461-3.744l123.737-38.213c6.84-2.112 13.06-5.862 18.122-10.924l90.703-90.703c10.306-10.305 10.306-27.014.001-37.32z" fill="#ffbd86"/></g></g><g><path d="m346.914 126.699h-60.609v-60.61h-60.61v60.61h-60.609v60.609h60.609v60.61h60.61v-60.61h60.609z" fill="#e6f7fe"/></g><g><path d="m87.743 487.723-13.8-.87c-.157-.01-.315-.015-.472-.015h-65.97c-4.142 0-7.5 3.357-7.5 7.5s3.358 7.5 7.5 7.5h65.734l13.564.855c.161.01.321.015.479.015 3.926 0 7.227-3.055 7.478-7.028.26-4.134-2.879-7.697-7.013-7.957z"/><path d="m502.069 318.113c-13.211-13.199-34.709-13.198-47.924.003l-17.612 17.614c-.259-.821-.543-1.639-.879-2.451-4.435-10.706-14.388-17.356-25.975-17.356-7.51 0-14.57 2.925-19.881 8.234l-11.565 11.565c-3.591-11.461-14.273-19.798-26.859-19.798-7.513 0-14.574 2.924-19.884 8.232l-23.02 23.02c-2.715-.703-5.56-1.078-8.491-1.078h-26.479c-4.143 0-7.5 3.357-7.5 7.5s3.357 7.5 7.5 7.5h26.48c10.416 0 18.89 8.475 18.89 18.891 0 5.045-1.965 9.788-5.534 13.356-3.555 3.556-8.279 5.518-13.305 5.531-.016 0-.032-.002-.048-.002h-94.562c-1.989 0-3.897.79-5.303 2.197l-19.227 19.226c-2.929 2.93-2.929 7.678 0 10.607 1.464 1.464 3.384 2.196 5.303 2.196s3.839-.732 5.303-2.196l17.03-17.031 167.973.005c1.989 0 3.897-.79 5.304-2.197l47.757-47.763c.003-.003.006-.007.01-.011l35.179-35.183c7.366-7.358 19.351-7.358 26.71-.008 3.572 3.579 5.539 8.324 5.539 13.362 0 5.045-1.965 9.788-5.534 13.357l-90.698 90.709c-4.184 4.183-9.38 7.314-15.03 9.058l-123.744 38.211c-9.318 2.884-19.002 4.032-28.774 3.43l-110.549-6.93c-4.123-.243-7.695 2.882-7.955 7.017-.259 4.134 2.882 7.695 7.016 7.954l110.553 6.93c2.003.125 4.002.187 5.997.187 9.555 0 18.997-1.426 28.141-4.256l123.738-38.209c7.974-2.46 15.309-6.881 21.213-12.784l90.699-90.709c6.401-6.402 9.927-14.912 9.927-23.964 0-9.039-3.523-17.548-9.93-23.966zm-159.97 16.65c2.476-2.477 5.771-3.84 9.276-3.84 8.23 0 13.149 6.742 13.149 13.26 0 2.39-.674 5.913-3.885 9.123l-26.774 26.781c0-.033.004-.065.004-.098 0-10.133-4.475-19.234-11.546-25.45zm31.294 64.115h-37.101l64.115-64.114c2.477-2.478 5.77-3.842 9.273-3.842 5.487 0 10.018 3.026 12.117 8.097 2.1 5.069 1.037 10.412-2.844 14.292l.001.001z"/><path d="m171.47 332.626c8.476 3.011 16.304 7.4 23.267 13.049l16.96 13.75c1.336 1.083 3.003 1.674 4.723 1.674h22.08c4.142 0 7.5-3.357 7.5-7.5s-3.358-7.5-7.5-7.5h-19.422l-14.893-12.075c-8.29-6.724-17.607-11.949-27.702-15.535-10.082-3.569-20.614-5.379-31.303-5.379-20.981 0-41.6 7.157-58.058 20.153l-16.256 12.836h-63.365c-4.142 0-7.5 3.357-7.5 7.5s3.358 7.5 7.5 7.5h65.97c1.687 0 3.324-.568 4.648-1.613l18.3-14.45c13.822-10.915 31.14-16.926 48.762-16.926 8.979-.001 17.826 1.52 26.289 4.516z"/><path d="m286.305 58.59h-60.609c-4.142 0-7.5 3.357-7.5 7.5v53.109h-53.11c-4.142 0-7.5 3.357-7.5 7.5v60.609c0 4.143 3.358 7.5 7.5 7.5h53.11v53.11c0 4.143 3.358 7.5 7.5 7.5h60.609c4.143 0 7.5-3.357 7.5-7.5v-53.11h53.11c4.143 0 7.5-3.357 7.5-7.5v-60.609c0-4.143-3.357-7.5-7.5-7.5h-53.11v-53.109c0-4.143-3.358-7.5-7.5-7.5zm53.11 75.609v45.609h-53.11c-4.143 0-7.5 3.357-7.5 7.5v53.11h-45.609v-53.11c0-4.143-3.358-7.5-7.5-7.5h-53.11v-45.609h53.11c4.142 0 7.5-3.357 7.5-7.5v-53.109h45.609v53.109c0 4.143 3.357 7.5 7.5 7.5z"/><path d="m256 314.009c86.57 0 156.999-70.434 156.999-157.009 0-86.571-70.429-157-156.999-157-48.743 0-93.902 22.077-123.896 60.57-2.546 3.267-1.961 7.979 1.306 10.525s7.98 1.961 10.526-1.307c27.132-34.818 67.978-54.788 112.064-54.788 78.299 0 141.999 63.701 141.999 141.999 0 78.304-63.701 142.009-141.999 142.009s-141.999-63.705-141.999-142.009c0-20.521 4.284-40.32 12.734-58.847 1.719-3.769.057-8.218-3.711-9.936-3.769-1.717-8.217-.058-9.936 3.712-9.347 20.495-14.086 42.389-14.086 65.072-.001 86.574 70.428 157.009 156.998 157.009z"/></g></g></svg>