<svg height="480pt" viewBox="-4 0 480 480" width="480pt" xmlns="http://www.w3.org/2000/svg"><path d="m400 472v-224c0-17.671875 14.328125-32 32-32h-96v256zm0 0" fill="#00ccb3"/><path d="m336 472v-256h-120c-4.417969 0-8-3.582031-8-8v-96h-24v8h-24v112c0 17.671875 14.328125 32 32 32h88c4.417969 0 8 3.582031 8 8v200zm0 0" fill="#0b7"/><path d="m432 24c0-8.835938-7.164062-16-16-16h-144v16c0 17.671875 14.328125 32 32 32h128zm0 0" fill="#ffe477"/><path d="m120 64h-112v64h112zm0 0" fill="#898890"/><path d="m184 112v-40h-64v48h64zm0 0" fill="#acabb1"/><path d="m208 112h48v-32h-72v32zm0 0" fill="#c6c5ca"/><path d="m304 56-24 64h24v32c0 17.671875 14.328125 32 32 32h80c8.835938 0 16-7.164062 16-16v-112zm0 0" fill="#ffdaaa"/><path d="m344 184h64v32h-64zm0 0" fill="#f1cfa2"/><path d="m400 248v224h64v-224c0-17.671875-14.328125-32-32-32s-32 14.328125-32 32zm0 0" fill="#0b7"/><g fill="#3e3d42"><path d="m360 80h-16c0 4.417969-3.582031 8-8 8s-8-3.582031-8-8h-16c0 13.253906 10.746094 24 24 24s24-10.746094 24-24zm0 0"/><path d="m432 208h-16v-16c13.253906 0 24-10.746094 24-24v-144c0-13.253906-10.746094-24-24-24h-144c-4.417969 0-8 3.582031-8 8v16c.0625 17.828125 11.929688 33.453125 29.089844 38.296875l-20.585938 54.886719c-.925781 2.457031-.582031 5.214844.914063 7.375 1.496093 2.15625 3.957031 3.445312 6.582031 3.441406h16v24c.027344 22.082031 17.917969 39.972656 40 40v16h-120v-88h40c4.417969 0 8-3.582031 8-8v-32c0-4.417969-3.582031-8-8-8h-64c0-4.417969-3.582031-8-8-8h-56c0-4.417969-3.582031-8-8-8h-112c-4.417969 0-8 3.582031-8 8v64c0 4.417969 3.582031 8 8 8h112c4.417969 0 8-3.582031 8-8h24v104c.027344 22.082031 17.917969 39.972656 40 40h88v200c0 4.417969 3.582031 8 8 8h176c4.417969 0 8-3.582031 8-8v-224c-.027344-22.082031-17.917969-39.972656-40-40zm-40 256h-48v-240h56.207031c-5.292969 6.882812-8.175781 15.316406-8.207031 24zm-112-440v-8h136c4.417969 0 8 3.582031 8 8v24h-120c-13.253906 0-24-10.746094-24-24zm32 128v-32c0-4.417969-3.582031-8-8-8h-12.457031l18-48h114.457031v104c0 4.417969-3.582031 8-8 8h-80c-13.253906 0-24-10.746094-24-24zm40 40h48v16h-48zm-104-104v16h-56v-16zm-232 32v-48h96v48zm112-40h48v32h-48zm152 176h-88c-13.253906 0-24-10.746094-24-24v-104h16c4.417969 0 8-3.582031 8-8h8v88c0 8.835938 7.164062 16 16 16h112v240h-32v-192c0-8.835938-7.164062-16-16-16zm176 208h-48v-216c0-13.253906 10.746094-24 24-24s24 10.746094 24 24zm0 0"/><path d="m365.679688 258.320312c-2.300782-2.269531-5.742188-2.933593-8.71875-1.679687-.980469.386719-1.875.957031-2.640626 1.679687-.707031.777344-1.273437 1.671876-1.679687 2.640626-.851563 1.9375-.851563 4.140624 0 6.078124.40625.96875.976563 1.863282 1.679687 2.640626 2.289063 2.289062 5.742188 2.957031 8.71875 1.679687.96875-.40625 1.863282-.972656 2.640626-1.679687.703124-.777344 1.273437-1.671876 1.679687-2.640626.855469-1.9375.855469-4.140624 0-6.078124-.40625-.96875-.972656-1.863282-1.679687-2.640626zm0 0"/><path d="m365.679688 306.320312c-1.921876-1.875-4.644532-2.683593-7.28125-2.160156-.5.085938-.984376.25-1.4375.480469-.511719.175781-.996094.417969-1.441407.71875-.417969.296875-.820312.617187-1.199219.960937-.722656.765626-1.292968 1.660157-1.679687 2.640626-1.054687 2.460937-.796875 5.285156.6875 7.511718 1.484375 2.226563 3.996094 3.554688 6.671875 3.527344 2.125.003906 4.164062-.832031 5.679688-2.320312 2.289062-2.289063 2.957031-5.742188 1.679687-8.71875-.386719-.980469-.957031-1.875-1.679687-2.640626zm0 0"/><path d="m358.398438 352.160156c-.5.085938-.984376.25-1.4375.480469-.511719.175781-.996094.417969-1.441407.71875-.417969.296875-.820312.617187-1.199219.960937-1.460937 1.53125-2.289062 3.5625-2.320312 5.679688 0 4.417969 3.582031 8 8 8s8-3.582031 8-8c-.03125-2.117188-.859375-4.148438-2.320312-5.679688-1.921876-1.875-4.644532-2.683593-7.28125-2.160156zm0 0"/><path d="m356.960938 400.640625c-2.011719.726563-3.59375 2.308594-4.320313 4.320313-.851563 1.9375-.851563 4.140624 0 6.078124.40625.96875.976563 1.863282 1.679687 2.640626 2.289063 2.308593 5.746094 3 8.746094 1.753906 3.003906-1.246094 4.953125-4.183594 4.933594-7.433594-.03125-2.117188-.859375-4.148438-2.320312-5.679688-2.335938-2.199218-5.734376-2.855468-8.71875-1.679687zm0 0"/></g></svg>