<svg height="512" viewBox="0 0 64 64" width="512" xmlns="http://www.w3.org/2000/svg"><circle cx="45" cy="39" fill="#ffcd00" r="16"/><path d="m11.5 13-.5 4a2.006 2.006 0 0 0 -2 2v4a2.006 2.006 0 0 0 2 2h1v2a2.015 2.015 0 0 0 2 2 2.006 2.006 0 0 0 2-2v-2h6v2a2.015 2.015 0 0 0 2 2 2.006 2.006 0 0 0 2-2v-2h1a2.006 2.006 0 0 0 2-2v-4a2.006 2.006 0 0 0 -2-2l-.5-4-.28-2.25a2.007 2.007 0 0 0 -1.99-1.75h-10.46a2.007 2.007 0 0 0 -1.99 1.75zm33.5 42v4a2.006 2.006 0 0 1 -2 2h-38a2.006 2.006 0 0 1 -2-2v-54a2.006 2.006 0 0 1 2-2h30v8a2.006 2.006 0 0 0 2 2h8v10a16 16 0 0 0 0 32zm-28 0v-8h-8v8zm0-14v-8h-8v8z" fill="#fee9ab"/><path d="m45 13h-8a2.006 2.006 0 0 1 -2-2v-8z" fill="#ff7956"/><path d="m29 19v4a2.006 2.006 0 0 1 -2 2h-16a2.006 2.006 0 0 1 -2-2v-4a2.006 2.006 0 0 1 2-2h16a2.006 2.006 0 0 1 2 2z" fill="#ff7956"/><path d="m26.5 13 .5 4h-8a3 3 0 0 0 -6 0h-2l.5-4 .28-2.25a2.007 2.007 0 0 1 1.99-1.75h10.46a2.007 2.007 0 0 1 1.99 1.75z" fill="#46f8ff"/><path d="m26 25v2a2.006 2.006 0 0 1 -2 2 2.015 2.015 0 0 1 -2-2v-2z" fill="#b2fa09"/><path d="m19 17h-6a3 3 0 0 1 6 0z" fill="#46f8ff"/><path d="m9 47h8v8h-8z" fill="#ff3051"/><path d="m9 33h8v8h-8z" fill="#9cdd05"/><path d="m16 25v2a2.006 2.006 0 0 1 -2 2 2.015 2.015 0 0 1 -2-2v-2z" fill="#b2fa09"/><path d="m62 39a17.007 17.007 0 0 0 -16-16.949v-9.051a1 1 0 0 0 -.293-.707l-10-10a1 1 0 0 0 -.707-.293h-30a3 3 0 0 0 -3 3v54a3 3 0 0 0 3 3h38a3 3 0 0 0 3-3v-3.051a17.007 17.007 0 0 0 16-16.949zm-26-33.586 6.586 6.586h-5.586a1 1 0 0 1 -1-1zm7 54.586h-38a1 1 0 0 1 -1-1v-54a1 1 0 0 1 1-1h29v7a3 3 0 0 0 3 3h7v8.051a16.977 16.977 0 0 0 0 33.9v3.049a1 1 0 0 1 -1 1zm2-6a15 15 0 1 1 15-15 15.017 15.017 0 0 1 -15 15z"/><path d="m11 26v1a3 3 0 0 0 6 0v-1h4v1a3 3 0 0 0 6 0v-1a3 3 0 0 0 3-3v-4a2.993 2.993 0 0 0 -2.1-2.846l-.267-2.154h2.367v-2h-2.617l-.172-1.372a3 3 0 0 0 -2.977-2.628h-10.468a3 3 0 0 0 -2.977 2.628l-.172 1.372h-2.617v2h2.367l-.267 2.154a2.993 2.993 0 0 0 -2.1 2.846v4a3 3 0 0 0 3 3zm4 1a1 1 0 0 1 -2 0v-1h2zm10 0a1 1 0 0 1 -2 0v-1h2zm-11.234-17h10.468a1 1 0 0 1 .993.876l.64 5.124h-6.009a3.981 3.981 0 0 0 -7.716 0h-.009l.64-5.124a1 1 0 0 1 .993-.876zm3.956 6h-3.444a1.983 1.983 0 0 1 3.444 0zm-7.722 3a1 1 0 0 1 1-1h16a1 1 0 0 1 1 1v4a1 1 0 0 1 -1 1h-16a1 1 0 0 1 -1-1z"/><path d="m12 20h4v2h-4z"/><path d="m22 20h4v2h-4z"/><path d="m45 30a4 4 0 0 1 4 4h2a6.006 6.006 0 0 0 -5-5.91v-2.09h-2v2.09a6 6 0 0 0 1 11.91 4 4 0 1 1 -4 4h-2a6.006 6.006 0 0 0 5 5.91v2.09h2v-2.09a6 6 0 0 0 -1-11.91 4 4 0 0 1 0-8z"/><path d="m17 32h-8a1 1 0 0 0 -1 1v8a1 1 0 0 0 1 1h8a1 1 0 0 0 1-1v-8a1 1 0 0 0 -1-1zm-1 8h-6v-6h6z"/><path d="m17 46h-8a1 1 0 0 0 -1 1v8a1 1 0 0 0 1 1h8a1 1 0 0 0 1-1v-8a1 1 0 0 0 -1-1zm-1 8h-6v-6h6z"/><path d="m20 34h6v2h-6z"/><path d="m20 38h6v2h-6z"/><path d="m24 48h4v2h-4z"/><path d="m24 52h4v2h-4z"/><path d="m20 48h2v2h-2z"/><path d="m20 52h2v2h-2z"/></svg>